<svg width="306" height="93" viewBox="0 0 306 93" fill="#000" xmlns="http://www.w3.org/2000/svg">
    <path d="M11.128 91.664C7.8 91.664 5.19733 90.768 3.32 88.976C1.528 87.0987 0.632 84.3253 0.632 80.656C0.632 79.376 0.632 78.096 0.632 76.816C0.717334 75.536 0.845334 74 1.016 72.208C1.272 70.416 1.57067 68.112 1.912 65.296L6.776 27.152H15.736C17.1867 27.152 18.1253 28.0053 18.552 29.712C19.064 31.3333 19.32 33.3387 19.32 35.728C19.32 37.52 19.192 39.8667 18.936 42.768C18.68 45.6693 18.296 48.8693 17.784 52.368L16.248 62.864C15.9067 65.2533 15.6507 67.3867 15.48 69.264C15.3947 71.1413 15.352 72.6773 15.352 73.872C15.352 75.5787 15.5227 76.9013 15.864 77.84C16.2907 78.6933 17.0587 79.12 18.168 79.12C19.448 79.12 21.0693 78.1813 23.032 76.304C24.9947 74.4267 27.0427 71.952 29.176 68.88C31.3947 65.808 33.4427 62.5227 35.32 59.024C37.1973 55.44 38.7333 51.984 39.928 48.656C41.1227 45.328 41.72 42.4693 41.72 40.08C41.72 38.1173 41.464 36.496 40.952 35.216C40.5253 33.8507 40.3547 32.7413 40.44 31.888C40.44 31.12 40.9093 30.4373 41.848 29.84C42.872 29.2427 44.0667 28.7733 45.432 28.432C46.7973 28.0053 48.1627 27.7067 49.528 27.536C50.8933 27.28 51.96 27.152 52.728 27.152C54.1787 27.152 55.288 28.0053 56.056 29.712C56.9093 31.4187 57.1653 33.8507 56.824 37.008L50.808 91.28H41.848C40.824 91.28 40.0133 90.768 39.416 89.744C38.8187 88.6347 38.392 87.3973 38.136 86.032C37.9653 84.6667 37.88 83.6427 37.88 82.96C37.88 80.9973 38.136 78.864 38.648 76.56C39.2453 74.256 40.056 71.312 41.08 67.728C42.1893 64.144 43.512 59.536 45.048 53.904V56.08C41.72 64.784 38.0507 71.7387 34.04 76.944C30.0293 82.1493 26.0613 85.904 22.136 88.208C18.2107 90.512 14.5413 91.664 11.128 91.664ZM108.711 92.048C100.178 92.048 92.839 90.64 86.695 87.824C80.6363 84.9227 75.9857 80.6133 72.743 74.896C69.5003 69.1787 67.879 62.1387 67.879 53.776C67.879 46.096 69.0737 39.056 71.463 32.656C73.8523 26.1707 77.2657 20.5813 81.703 15.888C86.1403 11.1093 91.4737 7.43999 97.703 4.88C104.018 2.23466 111.058 0.911995 118.823 0.911995C125.052 0.911995 129.831 1.68 133.159 3.216C136.572 4.66666 138.279 7.312 138.279 11.152C138.279 13.2 137.98 14.9493 137.383 16.4C136.871 17.8507 136.018 18.576 134.823 18.576C133.97 18.576 133.074 18.32 132.135 17.808C131.196 17.296 130.13 16.7413 128.935 16.144C126.887 15.12 124.668 14.0533 122.279 12.944C119.89 11.7493 116.946 11.152 113.447 11.152C107.986 11.152 103.079 12.816 98.727 16.144C94.4603 19.472 91.0897 24.1653 88.615 30.224C86.1403 36.1973 84.903 43.28 84.903 51.472C84.903 59.0667 86.311 65.04 89.127 69.392C92.0283 73.744 96.3803 76.816 102.183 78.608C107.986 80.4 115.239 81.296 123.943 81.296L128.679 38.288H138.919C140.626 38.288 141.735 38.7147 142.247 39.568C142.844 40.336 143.143 41.872 143.143 44.176C143.143 44.688 143.143 45.2 143.143 45.712C143.143 46.224 143.1 46.736 143.015 47.248L139.047 80.272C138.706 82.7467 138.194 84.9227 137.511 86.8C136.914 88.6773 135.762 89.744 134.055 90C129.447 90.6827 125.01 91.1947 120.743 91.536C116.562 91.8773 112.551 92.048 108.711 92.048ZM170.668 92.048C164.097 92.048 159.02 90 155.436 85.904C151.852 81.7227 150.06 76.0053 150.06 68.752C150.06 62.6933 150.913 57.1467 152.62 52.112C154.327 47.0773 156.716 42.6827 159.788 38.928C162.86 35.1733 166.444 32.272 170.54 30.224C174.721 28.176 179.244 27.152 184.108 27.152C189.911 27.152 194.348 28.3893 197.42 30.864C200.492 33.3387 202.028 36.88 202.028 41.488C202.028 46.1813 200.449 50.2773 197.292 53.776C194.22 57.2747 189.74 60.2613 183.852 62.736C178.049 65.2107 171.095 67.3013 162.988 69.008L161.324 61.328C166.017 60.7307 170.327 59.7067 174.252 58.256C178.177 56.8053 181.335 54.8853 183.724 52.496C186.113 50.0213 187.308 47.12 187.308 43.792C187.308 41.488 186.839 39.7387 185.9 38.544C185.047 37.3493 183.468 36.752 181.164 36.752C177.665 36.752 174.679 38.032 172.204 40.592C169.815 43.152 167.98 46.48 166.7 50.576C165.505 54.672 164.908 59.024 164.908 63.632C164.908 69.8613 165.847 74.0427 167.724 76.176C169.687 78.224 172.545 79.248 176.3 79.248C180.225 79.248 183.639 78.6507 186.54 77.456C189.527 76.176 192.087 74.8533 194.22 73.488C194.903 73.0613 195.5 72.72 196.012 72.464C196.524 72.208 196.951 72.08 197.292 72.08C197.719 72.08 198.06 72.2507 198.316 72.592C198.572 72.9333 198.7 73.3173 198.7 73.744C198.7 75.28 198.017 77.072 196.652 79.12C195.287 81.168 193.324 83.1733 190.764 85.136C188.289 87.0987 185.345 88.72 181.932 90C178.519 91.3653 174.764 92.048 170.668 92.048ZM288.221 91.28C287.282 91.28 286.6 90.8533 286.173 90C285.746 89.0613 285.49 88.0373 285.405 86.928C285.32 85.8187 285.277 84.9227 285.277 84.24C285.277 83.0453 285.362 81.5093 285.533 79.632C285.704 77.7547 285.917 75.792 286.173 73.744C286.429 71.6107 286.685 69.776 286.941 68.24L289.117 54.928C289.373 53.2213 289.629 51.6427 289.885 50.192C290.141 48.656 290.269 47.0347 290.269 45.328C290.269 44.048 290.013 43.0667 289.501 42.384C288.989 41.7013 288.306 41.36 287.453 41.36C286.344 41.36 284.509 42.4267 281.949 44.56C279.389 46.6933 276.658 49.7227 273.757 53.648C270.856 57.5733 268.21 62.3093 265.821 67.856C263.432 73.4027 261.896 79.5893 261.213 86.416L258.397 67.6C261.896 57.7013 265.778 49.808 270.045 43.92C274.397 38.032 278.706 33.808 282.973 31.248C287.24 28.6027 290.952 27.28 294.109 27.28C296.754 27.28 298.845 27.7493 300.381 28.688C302.002 29.6267 303.197 30.992 303.965 32.784C304.733 34.576 305.117 36.7093 305.117 39.184C305.117 40.976 304.946 42.896 304.605 44.944C304.349 46.9067 304.05 48.9973 303.709 51.216L297.565 91.28H288.221ZM212.189 91.792C211.08 91.792 210.226 91.5787 209.629 91.152C209.117 90.8107 208.818 89.8293 208.733 88.208C208.733 86.5867 208.946 83.984 209.373 80.4L215.389 27.152H224.349C226.056 27.152 227.293 28.0907 228.061 29.968C228.914 31.8453 229.341 33.9787 229.341 36.368C229.341 37.4773 229 39.2267 228.317 41.616C227.72 43.92 226.994 46.3947 226.141 49.04C225.288 51.6 224.52 53.8613 223.837 55.824L220.509 66.32L225.245 65.552L223.069 86.416C222.984 87.2693 222.472 88.0373 221.533 88.72C220.68 89.4027 219.656 89.9573 218.461 90.384C217.266 90.896 216.072 91.2373 214.877 91.408C213.768 91.664 212.872 91.792 212.189 91.792ZM249.949 91.792C248.413 91.792 247.474 91.4933 247.133 90.896C246.792 90.2987 246.621 89.2747 246.621 87.824C246.621 86.544 246.749 84.4533 247.005 81.552C247.346 78.6507 248.029 74.2133 249.053 68.24L251.357 55.056C251.698 53.3493 251.954 51.6853 252.125 50.064C252.381 48.3573 252.509 46.6507 252.509 44.944C252.509 43.7493 252.296 42.8533 251.869 42.256C251.442 41.6587 250.76 41.36 249.821 41.36C248.626 41.36 246.706 42.4267 244.061 44.56C241.416 46.6933 238.6 49.7227 235.613 53.648C232.712 57.5733 230.066 62.3093 227.677 67.856C225.288 73.4027 223.752 79.5893 223.069 86.416L219.997 67.6C222.557 60.176 225.458 53.904 228.701 48.784C231.944 43.664 235.229 39.5253 238.557 36.368C241.885 33.2107 245.042 30.9067 248.029 29.456C251.101 28.0053 253.746 27.28 255.965 27.28C258.781 27.28 260.957 27.792 262.493 28.816C264.114 29.84 265.224 31.2053 265.821 32.912C266.504 34.5333 266.845 36.24 266.845 38.032C266.845 40.1653 266.504 42.384 265.821 44.688C265.138 46.992 264.2 49.808 263.005 53.136C261.896 56.3787 260.658 60.56 259.293 65.68L263.517 64.144L261.213 86.416C261.128 87.2693 260.658 88.0373 259.805 88.72C258.952 89.4027 257.885 89.9573 256.605 90.384C255.41 90.8107 254.173 91.152 252.893 91.408C251.698 91.664 250.717 91.792 249.949 91.792Z"
          fill="#000"/>
</svg>
