<?xml version="1.0" encoding="utf-8"?>
<!-- Generator: Adobe Illustrator 26.0.1, SVG Export Plug-In . SVG Version: 6.00 Build 0)  -->
<svg version="1.1" id="Layer_1" xmlns="http://www.w3.org/2000/svg" xmlns:xlink="http://www.w3.org/1999/xlink" x="0px" y="0px"
	 viewBox="0 0 512 512" style="enable-background:new 0 0 512 512;" xml:space="preserve">
<style type="text/css">
	.st0{fill:#202835;}
	.st1{fill:#FFFFFF;}
	.st2{fill:url(#SVGID_1_);}
	.st3{fill:url(#SVGID_00000039837350587131008200000009329016807113442750_);}
	.st4{fill:url(#SVGID_00000053504916233800292480000014390061805818769591_);}
	.st5{opacity:0.1;}
	.st6{fill:#1C1C1C;}
	.st7{fill:url(#SVGID_00000091722558239906431660000001845863105415114409_);}
	.st8{fill:url(#SVGID_00000093886919011419328160000015923919139285854343_);}
	.st9{fill:url(#SVGID_00000124844511946641763510000011467321299753746072_);}
</style>
<path class="st1" d="M510.62,256L510.62,256c0,140.62-114,254.62-254.62,254.62h0c-140.62,0-254.62-114-254.62-254.62v0
	C1.38,115.38,115.38,1.38,256,1.38h0C396.62,1.38,510.62,115.38,510.62,256z"/>
<g>
	<linearGradient id="SVGID_1_" gradientUnits="userSpaceOnUse" x1="155.5696" y1="198.5921" x2="304.9622" y2="376.545">
		<stop  offset="0" style="stop-color:#F97326"/>
		<stop  offset="1" style="stop-color:#F9AA26"/>
	</linearGradient>
	<path class="st2" d="M393.68,322.09l-8.12,67.38c-1.33,9.76-3.3,18.34-5.82,25.75c-2.52,7.41-7.15,11.64-13.89,12.63
		c-18.18,2.68-36.46,4.71-54.86,6.08c-18.38,1.33-35.13,2.04-50.28,2.04c-33.71,0-63.47-5.66-89.22-16.97
		c-25.82-11.26-45.97-28.23-60.46-50.79c-5.6-8.72-10.11-18.23-13.52-28.52c-0.97-2.88-1.84-5.8-2.63-8.78
		c-0.15-1.06-0.29-2.15-0.42-3.21c-0.02-0.09-0.04-0.18-0.02-0.27c-0.93-7.43-1.39-15-1.39-22.68c0-5.44,0.24-10.84,0.71-16.17
		c8.14-94.51,87.03-168.75,183.41-169.57c-5.24,0.11-10.31,0.64-15.2,1.66c-4.23,0.84-8.34,2.04-12.3,3.52
		c-8.3,3.19-15.97,7.74-23.12,13.74c-5.2,4.4-10,9.42-14.36,15.11c-8.3,10.71-15.13,23.69-20.51,38.98
		c-8.23,23.43-12.34,51.32-12.34,83.67c0,29.98,5.27,53.31,15.91,70.02c10.6,16.68,25.59,28.38,44.97,35.13
		c18.8,6.55,40.7,9.91,65.68,10.09c0.75,0.02,1.5,0.02,2.26,0.02c0.02,0,0.02,0,0.04,0C350.1,390.94,385.12,361.45,393.68,322.09z"
		/>
	
		<linearGradient id="SVGID_00000062877513758648299010000011077402989436721029_" gradientUnits="userSpaceOnUse" x1="354.9767" y1="223.6508" x2="354.9767" y2="390.96">
		<stop  offset="0" style="stop-color:#F9AA26"/>
		<stop  offset="1" style="stop-color:#F97326"/>
	</linearGradient>
	<path style="fill:url(#SVGID_00000062877513758648299010000011077402989436721029_);" d="M401.75,246.88v6.08
		c0,1.99-0.15,4.03-0.49,6.04l-5.62,46.68l-0.73,6.13c-0.02,0.02-0.02,0.04-0.02,0.07l-1.22,10.22
		c-8.56,39.36-43.58,68.84-85.48,68.87l1.95-17.48l16.1-143.95l0.66-5.88h49.53c9.78,0,16.46,1.59,19.98,4.78
		C400.01,231.61,401.75,237.76,401.75,246.88z"/>
	
		<linearGradient id="SVGID_00000072270991190749977120000010952832252620032173_" gradientUnits="userSpaceOnUse" x1="395.4759" y1="69.1139" x2="133.6391" y2="222.3369">
		<stop  offset="0" style="stop-color:#F97326"/>
		<stop  offset="1" style="stop-color:#F9AA26"/>
	</linearGradient>
	<path style="fill:url(#SVGID_00000072270991190749977120000010952832252620032173_);" d="M389.63,123.5
		c0,9.45-2.04,17.79-6.11,25.04c-0.38,0.69-0.77,1.35-1.17,1.99c-2.68,4.29-5.6,7.01-8.76,8.21c-1.22,0.44-2.41,0.66-3.67,0.66
		c-3.03,0-7.81-1.92-14.18-5.82c-6.42-3.85-11.79-7.15-16.19-9.82c-8.07-5.38-17.01-10.88-26.79-16.41
		c-9.03-5.15-19.16-7.9-30.46-8.3c-0.95-0.02-1.92-0.04-2.88-0.04h-0.64c-0.53,0-1.08,0-1.61,0.02
		C175.33,119.9,93.04,202.7,93.04,304.77c0,8.87,0.62,17.61,1.84,26.15c-3.69-14.03-5.53-29.4-5.53-46.1
		c0-30.35,5.22-58.25,15.64-83.67c10.44-25.48,25.04-47.56,43.71-66.23c18.72-18.72,40.79-33.21,66.26-43.47
		c25.44-10.29,53.16-15.44,83.13-15.44c29.64,0,52.32,3.3,68.03,9.89C381.78,92.42,389.63,105.01,389.63,123.5z"/>
	<g class="st5">
		<path class="st6" d="M277.16,119.04c-5.24,0.11-10.31,0.64-15.2,1.66c-4.23,0.84-8.34,2.04-12.3,3.52
			c-8.3,3.19-15.97,7.74-23.12,13.74c-5.2,4.4-10,9.42-14.36,15.11C144.56,180.8,96.91,247.3,96.91,324.97
			c0,4.96,0.2,9.87,0.6,14.73c-0.97-2.88-1.84-5.8-2.63-8.78c-0.15-1.06-0.29-2.15-0.42-3.21c-0.02-0.09-0.04-0.18-0.02-0.27
			c-0.93-7.43-1.39-15-1.39-22.68c0-5.44,0.24-10.84,0.71-16.17C101.89,194.1,180.78,119.85,277.16,119.04z"/>
		<path class="st6" d="M394.9,311.87l-1.22,10.22c-8.56,39.36-43.58,68.84-85.48,68.87l1.95-17.48h1.13c0.02,0,0.02,0,0.04,0
			C350.61,373.46,383.84,347.53,394.9,311.87z"/>
	</g>
</g>
</svg>
