<?xml version="1.0" encoding="iso-8859-1"?>
<!-- Uploaded to: SVG Repo, www.svgrepo.com, Generator: SVG Repo Mixer Tools -->
<svg version="1.1" id="Layer_1" xmlns="http://www.w3.org/2000/svg" xmlns:xlink="http://www.w3.org/1999/xlink" 
	 viewBox="0 0 512 512" xml:space="preserve">
<circle style="fill:#FC6F58;" cx="256" cy="256" r="256"/>
<path style="fill:#F1543F;" d="M511.352,274.142L404.256,167.046l-154.29,94.125l-142.222,83.782l166.398,166.398
	C401.065,502.463,502.463,401.065,511.352,274.142z"/>
<rect x="107.744" y="167.046" style="fill:#FFD15D;" width="296.512" height="177.907"/>
<rect x="255.431" y="167.046" style="fill:#F9B54C;" width="148.825" height="177.907"/>
<rect x="125.845" y="183.596" style="fill:#FFFFFF;" width="260.31" height="144.808"/>
<rect x="255.431" y="183.596" style="fill:#D0D1D3;" width="130.729" height="144.808"/>
<rect x="137.912" y="194.801" style="fill:#3B3B3F;" width="8.62" height="122.397"/>
<g>
	<rect x="365.468" y="194.801" style="fill:#272525;" width="8.62" height="122.397"/>
	<rect x="337.024" y="194.801" style="fill:#272525;" width="17.239" height="89.643"/>
	<rect x="315.475" y="194.801" style="fill:#272525;" width="8.62" height="89.643"/>
	<rect x="303.407" y="194.801" style="fill:#272525;" width="8.62" height="89.643"/>
	<rect x="275.825" y="194.801" style="fill:#272525;" width="8.62" height="89.643"/>
</g>
<rect x="249.966" y="194.801" style="fill:#3B3B3F;" width="15.515" height="89.643"/>
<rect x="255.431" y="194.801" style="fill:#272525;" width="10.056" height="89.643"/>
<g>
	<polyline style="fill:#3B3B3F;" points="249.966,284.444 255.426,284.444 255.426,194.801 249.966,194.801 	"/>
	<rect x="231.865" y="194.801" style="fill:#3B3B3F;" width="8.62" height="89.643"/>
	<rect x="199.111" y="194.801" style="fill:#3B3B3F;" width="8.62" height="89.643"/>
	<rect x="218.936" y="194.801" style="fill:#3B3B3F;" width="8.62" height="89.643"/>
	<rect x="178.424" y="194.801" style="fill:#3B3B3F;" width="13.791" height="89.643"/>
	<rect x="157.737" y="194.801" style="fill:#3B3B3F;" width="8.62" height="89.643"/>
</g>
</svg>