<svg transform="scale(1)" version="1.1" id="Layer_1" xmlns="http://www.w3.org/2000/svg" xmlns:xlink="http://www.w3.org/1999/xlink" x="0px" y="0px" viewBox="0 0 500 500" xml:space="preserve" class="show_show__wrapper__graphic__5Waiy "><title>React</title><style type="text/css">
	.st0{fill:#68E1FD;}
	.st1{opacity:0.39;fill:#2B415D;enable-background:new    ;}
	.st2{fill:#FFFFFF;}
	.st3{opacity:0.46;fill:url(#Shadow_00000165913153170669945650000014592765366981744571_);enable-background:new    ;}
	.st4{fill:#F26122;}
	.st5{fill:#FF8386;}
	.st6{fill:#2B415D;}
	.st7{fill:#FFAC73;}
	.st8{fill:#E5894A;}
	.st9{fill:#4B1B13;}
	.st10{fill:#29ABE2;}
	.st11{opacity:0.55;fill:#FFFFFF;enable-background:new    ;}
</style><g id="Smartphone"><path class="st0" d="M40.5,288.7l5.4,3.2l230.6-132.1L451.5,265l8-2.4v9.5c0.2,2-0.8,4-2.5,4.9L236.2,403.8
		c-6.4,3.6-14.2,3.7-20.6,0.1L45,308c-3.3-1.9-5.1-5.7-4.4-9.4L40.5,288.7z"></path><path class="st0" d="M40.5,288.7l5.4,3.2l230.6-132.1L451.5,265l8-2.4v9.5c0.2,2-0.8,4-2.5,4.9L236.2,403.8
		c-6.4,3.6-14.2,3.7-20.6,0.1L45,308c-3.3-1.9-5.1-5.7-4.4-9.4L40.5,288.7z"></path><path class="st1" d="M40.5,288.7l5.4,3.2l230.6-132.1L451.5,265l8-2.4v9.5c0.2,2-0.8,4-2.5,4.9L236.2,403.8
		c-6.4,3.6-14.2,3.7-20.6,0.1L45,308c-3.3-1.9-5.1-5.7-4.4-9.4L40.5,288.7z"></path><path class="st0" d="M457,265.3L236.2,392.1c-6.4,3.7-14.2,3.7-20.6,0.1L45,296.3c-4.3-2.5-5.8-8-3.3-12.3c0.8-1.4,1.9-2.5,3.3-3.3
		l231.5-132.6l180.6,108.5c2.4,1.4,3.2,4.5,1.7,6.9C458.4,264.3,457.8,264.9,457,265.3z"></path><polygon class="st2" points="430.8,260.1 241,369 72.7,274.4 265.1,161.3 	"></polygon><ellipse class="st1" cx="136.1" cy="327" rx="8.4" ry="4.6"></ellipse></g><linearGradient id="Shadow_00000113316008498444955620000006842690794435491736_" gradientUnits="userSpaceOnUse" x1="240.2518" y1="200.4487" x2="264.5418" y2="233.6087" gradientTransform="matrix(1 0 0 -1 0 502)"><stop offset="1.000000e-02" style="stop-color: rgb(255, 255, 255); stop-opacity: 0;"></stop><stop offset="1" style="stop-color: rgb(179, 179, 179); stop-opacity: 0.97;"></stop></linearGradient><polyline id="Shadow" points="
	247.4,245.3 184.2,279.9 247.4,314 340.9,262.3 " style="opacity: 0.46; fill: url(&quot;#Shadow_00000113316008498444955620000006842690794435491736_&quot;);"></polyline><g id="Passed"><path class="st4" d="M112.2,133.3l2,71.1c0,3.2,3.9,5.3,6.7,3.9l57.1-31.6c2-1,3.2-3,3.2-5.2l-1.2-68.7c0-2.6-2.2-4.6-4.8-4.6
		c-0.7,0-1.4,0.2-2,0.5l-57.8,29.4C113.4,129.1,112.1,131.2,112.2,133.3z"></path><path class="st2" d="M142.2,172.4c-2.8-4.9-5.5-9.9-8.1-14.9c-1.3-2.4-4.3-3.4-6.8-2.1c-0.7,0.4-1.3,0.9-1.8,1.6l-0.1,0.1
		c-1,1.5-1.1,3.4-0.3,5.1c2.7,5.2,5.4,10.3,8.3,15.3C136.7,183.1,145.4,178,142.2,172.4z"></path><path class="st2" d="M133.9,172.5c10.3-16.1,19.8-32.7,28.3-49.8c2.9-5.8,11.6-0.7,8.7,5.1c-8.5,17.1-18,33.7-28.3,49.8
		C139.1,183,130.4,178,133.9,172.5z"></path></g><g id="Character"><path class="st5" d="M340.9,262.3c0,0-1.4-22.3-1.9-27.8c-0.5-5-2.1-26.9-15.9-33.9c-17.3-8.8-37.3-20.1-55.8-14.8
		c-15,4.3-20.1,56.1-19.9,59.6C247.7,251.5,294.2,284.3,340.9,262.3z"></path><path class="st6" d="M305.5,203.2c0,1-12.2,15-15.2,13.1s-4.3-14.3-6.1-13.1s-8.5,9.2-9.5,8.6s1.4-22,3.4-25.6
		S305.5,195.3,305.5,203.2z"></path><path class="st7" d="M274.7,151.3c0,0,0.1,14.5,0,19.9c-0.1,5.7,2.3,21,11.7,20.5s18.9-11.4,18.9-13.8c0,0,9.4-5.9,4.1-10.4
		s-5.8,3.1-5.8,3.1s-2.9-4.2-3.1-15.5C300.5,155.1,287.2,157.2,274.7,151.3z"></path><path class="st7" d="M304.8,193c-4.8,4.4-12.5,5.2-19.7,4.2c-1.1-0.1-2-0.9-2.1-2c-0.1-2.2-0.2-4.4-0.4-6.6l24.6-12l-1.9,15.7
		C305.3,192.3,305.1,192.5,304.8,193z"></path><path class="st8" d="M287.9,197.4c-1-0.1-1.9-0.2-2.9-0.3c-1.1-0.1-2-0.9-2.1-2c0-1.1-0.1-2.3-0.2-3.4c5.2,0,14.5-1.2,19.4-10.9
		C300.9,188.6,295.4,195,287.9,197.4z"></path><path class="st9" d="M274.7,159.6c0,0-5.9-3.7-5.2-12.6s10.5-13.8,23.8-13.1s28.6,7.3,30.7,29s6.9,34.4-0.9,37.6s-20,6.8-32.9,5.2
		c0,0,12.5-24.7,11.2-41.4s-1.6-3.9-3.1-1.2S274.7,159.6,274.7,159.6z"></path><path class="st6" d="M313.1,269.7c-0.5,0-0.9,0.1-1.4,0.1c0.1-9.3,0.2-18.7,0.1-28c0.1-0.8,0.8-1.5,1.7-1.4
		c0.8,0.1,1.4,0.7,1.4,1.4c0.1,9.3,0.1,18.5-0.1,27.8L313.1,269.7z"></path><path class="st6" d="M262.5,258L262.5,258c-0.1-0.1-0.2-0.1-0.3-0.1c-0.3-0.1-0.5-0.3-0.8-0.5s-0.6-0.4-1-0.5s-0.5-0.3-0.8-0.4
		c0-11.1,0.4-22.2,1-33.2c0.1-2,3.2-2,3.1,0c-0.7,11.4-1,22.8-1,34.3C262.6,257.6,262.6,257.8,262.5,258z"></path><path class="st10" d="M290,283.7c-43.9,0-79.7-16.5-79.7-36.7s35.7-36.7,79.7-36.7s79.7,16.5,79.7,36.7S333.9,283.7,290,283.7z
		 M290,211.2c-43.4,0-78.7,16-78.7,35.7s35.3,35.7,78.7,35.7s78.7-16,78.7-35.7S333.3,211.2,290,211.2L290,211.2z"></path></g><g id="Scan"><path class="st10" d="M339,178.7h-4V145c0-1.2-0.6-2.2-1.7-2.8l-22-12.2l1.9-3.5l22,12.2c2.3,1.3,3.7,3.7,3.7,6.3V178.7z"></path><path class="st10" d="M333.1,269.2c-1,0-2-0.3-2.9-0.8l-18.7-10.6l2-3.5l18.7,10.6c0.9,0.5,2.1,0.2,2.6-0.7c0.2-0.3,0.3-0.6,0.3-1
		v-29.8h4v29.8c0,2.1-1.1,4.1-2.9,5.1C335.2,268.9,334.1,269.2,333.1,269.2z"></path><path class="st10" d="M250.1,126.7h-4V96c0-2.5,2-4.6,4.5-4.6c0.8,0,1.6,0.2,2.3,0.6l23,13.3l-2,3.5l-23-13.3
		c-0.2-0.1-0.4-0.1-0.6,0c-0.2,0.1-0.3,0.3-0.3,0.5L250.1,126.7z"></path><path class="st10" d="M265.3,237.6l-16.1-8.6c-3.2-1.7-5.1-4.9-5.1-8.5v-27.9h4v27.9c0,2.1,1.1,4,3,5l16.1,8.5L265.3,237.6z"></path></g><g id="password"><path class="st10" d="M248.4,330.4L248.4,330.4c4.9-3.1,6.3-9.5,3.3-14.3c-0.9-1.4-2.2-2.6-3.6-3.5l-84.5-48.2
		c-6.3-3.6-14.1-3.6-20.4,0.1l0,0c-5,2.9-6.6,9.2-3.8,14.2c0.9,1.6,2.2,2.9,3.8,3.8l84.2,48.4C233.9,334.6,242,334.5,248.4,330.4z"></path><path class="st11" d="M248.4,330.4L248.4,330.4c4.9-3.1,6.3-9.5,3.3-14.3c-0.9-1.4-2.2-2.6-3.6-3.5l-84.5-48.2
		c-6.3-3.6-14.1-3.6-20.4,0.1l0,0c-5,2.9-6.6,9.2-3.8,14.2c0.9,1.6,2.2,2.9,3.8,3.8l84.2,48.4C233.9,334.6,242,334.5,248.4,330.4z"></path><path class="st6" d="M155.9,281.1l-0.5-2.4l5.5-0.3l-2.5-2.4l4.3-1.1l2.2,2.5l3.8-2.2l3.4,1.7l-4.4,1.9l5,1.1l-2.1,2.1l-4.7-1.3
		l-0.6,2.8l-4.7-0.2l1.1-2.9L155.9,281.1z"></path><path class="st6" d="M174.5,292.4L174,290l5.5-0.3l-2.5-2.4l4.3-1.1l2.1,2.5l3.8-2.2l3.4,1.7l-4.4,1.9l5,1.1l-2.2,2.2l-4.7-1.3
		l-0.6,2.8l-4.7-0.2l1.1-2.9L174.5,292.4z"></path><path class="st6" d="M197.7,305.2l-0.5-2.4l5.5-0.3l-2.5-2.4l4.3-1.1l2.2,2.5l3.8-2.2l3.4,1.7l-4.4,1.9l5,1.1l-2.1,2.1l-4.7-1.2
		l-0.6,2.8l-4.7-0.2l1.1-2.9L197.7,305.2z"></path><path class="st6" d="M219.3,317.7l-0.5-2.4l5.5-0.3l-2.5-2.4l4.3-1.1l2.2,2.5l3.8-2.2l3.4,1.7l-4.4,1.9l5,1.1l-2.1,2.1l-4.7-1.3
		l-0.6,2.8l-4.7-0.2l1.1-2.9L219.3,317.7z"></path></g></svg>