<?xml version="1.0" standalone="no"?>
<!DOCTYPE svg PUBLIC "-//W3C//DTD SVG 20010904//EN"
 "http://www.w3.org/TR/2001/REC-SVG-20010904/DTD/svg10.dtd">
<svg version="1.0" xmlns="http://www.w3.org/2000/svg"
 width="800.000000pt" height="800.000000pt" viewBox="0 0 800.000000 800.000000"
 preserveAspectRatio="xMidYMid meet">

<g transform="translate(0.000000,800.000000) scale(0.100000,-0.100000)"
fill="#000" stroke="none">
<path d="M2885 6401 c-169 -44 -265 -228 -208 -397 11 -33 34 -67 72 -105 47
-46 67 -58 120 -73 134 -37 277 25 334 147 21 43 27 44 109 16 107 -36 180
-98 251 -215 20 -34 37 -64 37 -67 0 -3 -22 -19 -50 -37 -112 -72 -228 -229
-282 -382 -69 -196 -54 -439 39 -621 11 -23 12 -28 1 -25 -7 1 -150 73 -318
160 -168 86 -359 179 -426 207 -150 63 -330 110 -450 118 -389 25 -729 -212
-836 -584 -19 -66 -23 -102 -23 -228 0 -169 12 -231 70 -353 209 -443 684
-641 1210 -507 55 14 136 41 179 60 44 19 82 33 84 31 12 -12 -86 -148 -206
-286 -180 -207 -356 -349 -562 -455 -61 -31 -117 -66 -126 -79 -41 -64 -17
-143 53 -172 49 -21 96 -8 232 63 167 87 245 146 409 310 84 84 154 153 156
153 1 0 2 -66 3 -147 2 -423 153 -775 466 -1082 241 -237 582 -355 891 -311
93 14 263 71 357 122 315 168 584 518 685 891 34 129 57 331 48 440 -4 48 -3
87 2 86 5 0 41 -38 80 -82 165 -191 466 -403 634 -448 58 -15 110 5 140 53 48
79 17 128 -127 202 -181 93 -286 168 -419 300 -181 182 -372 422 -351 443 4 3
42 -10 86 -30 44 -20 124 -49 178 -64 93 -26 110 -27 313 -27 207 0 218 1 305
28 167 51 281 120 405 246 185 186 271 411 257 668 -13 237 -104 417 -289 577
-150 130 -352 194 -568 182 -119 -7 -213 -29 -356 -83 -157 -58 -497 -220
-761 -363 -51 -27 -93 -46 -93 -42 0 5 11 35 26 66 40 92 65 214 65 323 1 153
-31 274 -104 397 -40 67 -180 220 -241 262 l-28 19 32 64 c60 119 177 211 292
229 l49 8 33 -51 c43 -65 70 -90 131 -118 108 -49 247 -18 328 72 136 151 87
388 -98 472 -113 51 -253 17 -337 -83 -35 -42 -46 -49 -77 -49 -57 0 -148 -27
-224 -67 -118 -62 -230 -180 -311 -326 l-38 -67 -51 7 c-66 10 -148 10 -213 0
l-51 -7 -53 91 c-125 210 -308 343 -519 375 -34 5 -52 16 -82 49 -73 79 -193
120 -284 96z m123 -247 c56 -64 -10 -149 -93 -118 -18 7 -45 55 -45 79 0 9 14
30 30 47 36 35 71 33 108 -8z m2053 7 c36 -36 37 -73 4 -106 -46 -47 -118 -23
-131 42 -5 27 -1 37 24 63 38 38 66 38 103 1z m-900 -630 c79 -30 140 -73 205
-144 202 -224 184 -550 -42 -756 -29 -26 -74 -58 -100 -70 -338 -159 -699 26
-765 392 -21 115 14 275 81 372 92 134 247 226 400 237 61 5 163 -10 221 -31z
m-1964 -655 c94 -20 275 -86 408 -148 110 -52 553 -283 675 -352 98 -56 101
-60 60 -96 l-35 -29 -275 -1 c-706 0 -1054 69 -1308 260 -103 78 -145 125
-133 149 14 25 99 106 145 137 53 36 137 73 188 83 69 14 201 12 275 -3z
m3822 4 c28 -5 86 -24 128 -42 62 -25 91 -46 150 -103 40 -40 73 -79 73 -88 0
-23 -144 -153 -221 -198 -197 -118 -441 -173 -839 -190 -336 -15 -653 -7 -703
18 -20 10 -37 21 -37 24 -1 20 282 177 650 360 390 195 610 255 799 219z
m-4283 -662 c259 -135 565 -194 1062 -205 138 -3 252 -10 252 -14 0 -31 -313
-216 -457 -270 -249 -94 -475 -101 -679 -19 -263 105 -434 346 -434 609 l0 81
84 -67 c46 -38 124 -89 172 -115z m4743 95 c-3 -177 -62 -307 -203 -449 -75
-75 -106 -98 -176 -132 -117 -56 -200 -75 -345 -76 -230 -1 -477 83 -726 250
-161 108 -170 100 123 107 503 13 787 63 1023 180 81 40 212 127 255 170 19
19 39 35 43 36 4 1 7 -38 6 -86z m-2252 -71 c92 -46 163 -94 229 -155 l59 -56
-532 -1 c-293 0 -533 4 -533 8 0 10 59 66 120 114 39 31 179 108 217 119 7 2
95 3 196 3 182 -2 184 -2 244 -32z m571 -539 c58 -88 119 -212 128 -260 l7
-33 -952 0 c-523 0 -951 4 -951 8 0 47 113 279 161 331 l28 31 764 0 764 0 51
-77z m169 -559 c9 -24 9 -252 0 -306 l-8 -48 -979 0 c-915 0 -978 1 -984 17
-9 22 -15 255 -9 311 l5 42 984 0 c896 0 985 -1 991 -16z m-83 -681 c-45 -99
-87 -175 -131 -235 l-35 -48 -741 0 -742 0 -53 83 c-58 90 -118 206 -128 250
l-6 27 936 0 935 0 -35 -77z m-444 -540 c0 -28 -194 -119 -294 -138 -100 -19
-244 -19 -338 0 -72 15 -228 85 -278 125 l-25 20 468 0 c257 0 467 -3 467 -7z"/>
</g>
</svg>
