<svg transform="scale(1)" version="1.1" id="Layer_1" xmlns="http://www.w3.org/2000/svg" xmlns:xlink="http://www.w3.org/1999/xlink" x="0px" y="0px" viewBox="0 0 500 500" xml:space="preserve" class="show_show__wrapper__graphic__5Waiy "><title>React</title><style type="text/css">
	.st0{fill:#225870;}
	.st1{fill:#103542;}
	.st2{fill:#F9AA43;}
	.st3{fill:#E28B23;}
	.st4{fill:#9B4242;}
	.st5{fill:#68E1FD;}
	.st6{fill:#400D20;}
	.st7{opacity:0.34;fill:#29ABE2;enable-background:new    ;}
	.st8{fill:#A1CA30;}
</style><g id="field"><path class="st0" d="M256.9,408.8l215.9-127.6c6.9-3.9,12.8-10.2,6.1-14.4L262.2,141.9c-3.2-2-8.2-3.3-11.5-1.4L24,272
		c-6.9,4-8.1,15.1-1.2,19.1l205.6,117.4C237.2,413.7,248,413.7,256.9,408.8z"></path><path class="st1" d="M52.6,275.8c0-11.5,27.9-20.8,62.3-20.8s62.3,9.3,62.3,20.8s-27.9,20.8-62.3,20.8S52.6,287.3,52.6,275.8"></path><ellipse class="st1" cx="302.1" cy="238.4" rx="25.2" ry="6.2"></ellipse><ellipse class="st1" cx="421.2" cy="272.5" rx="14.2" ry="6.8"></ellipse><ellipse class="st1" cx="156" cy="328.2" rx="21.2" ry="5.9"></ellipse><ellipse class="st1" cx="263.3" cy="168.2" rx="13.7" ry="3.1"></ellipse><ellipse class="st1" cx="237.8" cy="380.8" rx="12.2" ry="3.8"></ellipse><ellipse class="st1" cx="270.5" cy="342.1" rx="27" ry="8.1"></ellipse></g><g id="planet"><path class="st2" d="M143,202.6c25.6,0,46.4,20.7,46.4,46.3c0,25.6-20.7,46.4-46.3,46.4s-46.4-20.7-46.4-46.3c0,0,0,0,0-0.1"></path><path class="st2" d="M96.7,249c0-25.6,20.7-46.3,46.3-46.4"></path><path class="st3" d="M96.7,249c0,25.6,20.7,46.4,46.4,46.4c14.7,0,28.5-7,37.3-18.8c-16,5.3-33.5,3.1-47.6-6
		c-7.4-4.8-13.3-11.6-17-19.7c-4.9-10.3-7.6-23.3-5.2-34.9"></path><path class="st3" d="M110.5,216c-8.9,8.7-13.8,20.6-13.8,33"></path><circle class="st4" cx="169.6" cy="250" r="7.6"></circle><circle class="st4" cx="124.1" cy="250.1" r="5.6"></circle><circle class="st4" cx="147.1" cy="261.7" r="4.1"></circle><path class="st4" d="M117.8,222.5c2.7,0,4.9,2.2,4.9,4.8c0,2.7-2.2,4.9-4.8,4.9c-2.7,0-4.9-2.2-4.9-4.9c0,0,0,0,0,0
		C113,224.7,115.1,222.5,117.8,222.5C117.8,222.5,117.8,222.5,117.8,222.5"></path><circle class="st4" cx="143.5" cy="244.1" r="5"></circle><circle class="st4" cx="143.8" cy="220.1" r="9"></circle></g><g id="alien2"><path class="st5" d="M230.8,125.6c-0.8-1.2-1.8-2.2-2.9-3.1c-7.4-6.1-17.4-4.6-24.5,1c-16.8,13.2-8.4,40.9,10.9,47.2
		c0.9,0.3,1.9,0.5,2.9,0.6c8.1,0.6,13.5-9.9,15.5-16.3C235.4,146.4,236.4,133.6,230.8,125.6z"></path><path class="st5" d="M212.9,175.3c-5.1,0.4-10.1,2.2-13,4.7c-3.8,3.4-5.5,8.4-6.4,13.4c-2.5,13.7-5.8,27.5-6.3,41.5
		c-0.7,19.1,7.2,37.7,5.9,56.7c-0.6,8.1-0.2,17.4,4.8,19.6s13.7,13.2,24.6,10.7s-17.9-14.1-18.2-20.4c-0.6-15,2.2-29.8,4.9-44.5
		c0.5-2.6,0.3-6.1,1.8-8.4c1-1.6,3.4-2.6,4.9-1.5c0.7,0.6,1.2,1.3,1.6,2.1c2.9,6.5,1.8,14.9,1.8,21.8c0,5.8,0.3,11.8-0.5,17.6
		c-0.8,5.6-3.7,12.5,2.1,16.6s25.4,16,20.7,6.3s-11.3-8.5-12.1-15.6c-1.1-10.3,3.1-21.3,4.1-31.7c2.6-25.3,2.5-55.1-3.4-80
		C228.5,177.1,220.5,174.7,212.9,175.3z"></path><polyline class="st5" points="219.5,166.2 216.5,178.6 207.8,178.6 212.4,161.7 	"></polyline><path class="st6" d="M211.9,134.3c4.4,3.8,6.3,11.6,2.8,16.3c-4.8,6.5-13.1-9.7-12.8-13.5c0.3-4.5,5.3-5.8,8.8-3.7
		C211.1,133.6,211.5,133.9,211.9,134.3z"></path><path class="st6" d="M225.6,148c0,0,0.9-12.3,5.3-12.7c3.1-0.3,3,4.4,2.8,6.5c-0.2,2.6-1.5,5-3.5,6.7
		C228.5,149.9,225.1,151.8,225.6,148z"></path><path class="st6" d="M221.7,152.5h0.3c0.4,0,0.7,0.3,0.7,0.7s-0.3,0.7-0.7,0.7h-0.3c-0.4,0-0.7-0.3-0.7-0.7
		S221.3,152.5,221.7,152.5L221.7,152.5z"></path><path class="st6" d="M218.8,152.3c0.4,0,0.7,0.4,0.6,0.8c0,0.3-0.3,0.6-0.6,0.6c-0.4,0-0.7-0.4-0.6-0.8
		C218.2,152.6,218.5,152.3,218.8,152.3z"></path><path class="st5" d="M199.9,180.1c0,0-12.4,3.7-18.1,24s-3.7,38-5.1,39.9s-10.2,7.5-5.3,10.5c4.9,3,7.6-9.7,8.1-5.6
		s2.3,11.1,5.4,6.1s-0.9-29.5,2.2-36.6s11.8-14.3,11.8-14.3"></path><path class="st5" d="M228.1,180.1c0,0,16.8,9.7,20.6,20.7s0.5,27.3,4.2,30.4c3.7,3.1,12.6,5.6,6.5,8.8s-8.9-7.1-10.8-4.1
		s-4.8,9.5-6.4,8.2s2.4-14.4,2.5-15.6s-1.3-24.6-5-27.6s-14.2-6.5-14.2-6.5"></path></g><g id="alien1"><circle class="st7" cx="346.3" cy="119.4" r="31.8"></circle><path class="st8" d="M330.9,102.4c0.7-1,1.6-2,2.5-2.8c6.5-5.4,15.3-4.1,21.7,0.9c14.8,11.7,7.4,36.1-9.6,41.7
		c-0.8,0.3-1.7,0.5-2.6,0.6c-7.2,0.5-11.9-8.8-13.7-14.4C326.8,120.9,325.9,109.5,330.9,102.4z"></path><path class="st8" d="M349.5,148c2.3,0.2,15.8,0.4,20.6,11.8s-1,59.2-3.9,74.8s-6.2,39.9-5.5,49.8s6.1,24.3,0,27
		s-9.6,17.5-22.8,14.4s14.8-15.2,15.1-22.8s-2.9-13.3-1.6-21.6s1.8-28.1,1.5-39.1s-10.5-10.2-10.9,3c-0.3,13.3-0.6,33.4,0.3,40.3
		s4.5,15.2-2.6,20.1s-30.9,19.4-25.1,7.6s18.6-9.9,19.6-18.6s-2.9-20.1-2.6-35.7s2.9-35.7,4.5-51.3s-10.2-39.1-7.8-49
		S343.2,147.4,349.5,148z"></path><path class="st8" d="M341.5,166.3c0,0-20.3,14.5-29.3,14.8s-18.3-32.1-18.7-38.3s-10-2.6-10-8s6.4,4.2,10.3,1.6s-1.6-9.7,3.5-8
		c5.1,1.7-0.6,10.9,2.6,16.1s8.4,26,13.9,22.5s17-14.1,17-14.1s14-14.3,36.9,1.8c0.1,0.1,10,9.8,15.5,19.1s17.4-24.8,16.8-28.7
		s-4.5-12.9,0-13.8s3.5,10.9,5.4,9.3s7.1-9.3,9.6-5.8s-9.6,10.9-10.3,14.5s-7.1,37.3-17.7,39.6s-19.4-20.3-19.4-20.3L341.5,166.3z"></path><polyline class="st8" points="341.5,136.7 345.2,151.7 355.8,151.7 350.1,131.2 	"></polyline><path class="st6" d="M347.6,110.1c-3.9,3.3-5.6,10.3-2.5,14.4c4.3,5.7,11.6-8.6,11.3-12c-0.3-4-4.7-5.1-7.7-3.3
		C348.3,109.5,348,109.8,347.6,110.1z"></path><path class="st6" d="M335.5,122.2c0,0-0.8-10.9-4.7-11.2c-2.8-0.2-2.7,3.9-2.5,5.7c0.2,2.3,1.3,4.5,3.1,6
		C332.9,123.9,336,125.6,335.5,122.2z"></path><path class="st6" d="M338.9,126.2h-0.3c-0.4,0-0.6,0.4-0.6,0.7c0,0.3,0.3,0.5,0.6,0.6h0.3c0.4,0,0.6-0.4,0.6-0.7
		C339.4,126.5,339.2,126.3,338.9,126.2z"></path><path class="st6" d="M341.5,126.1c-0.4,0-0.6,0.4-0.6,0.7c0,0.3,0.3,0.5,0.6,0.6c0.4,0,0.6-0.4,0.6-0.7
		C342,126.3,341.8,126.1,341.5,126.1z"></path><path class="st8" d="M338.8,153.5c0,0-3.1-8.3-0.8-8.6s25.1-2.2,26.3,0s-1.3,10.4-1.3,10.4"></path></g></svg>