<?xml version="1.0" encoding="iso-8859-1"?>
<!-- Uploaded to: SVG Repo, www.svgrepo.com, Generator: SVG Repo Mixer Tools -->
<svg height="800px" width="800px" version="1.1" id="Layer_1" xmlns="http://www.w3.org/2000/svg" xmlns:xlink="http://www.w3.org/1999/xlink" 
	 viewBox="0 0 512 512" xml:space="preserve">
<circle style="fill:#FFD300;" cx="256" cy="256" r="256"/>
<path style="fill:#F4A200;" d="M289.209,509.859c108.784-14.093,196.141-96.468,217.679-202.735L346.128,143.201L298.56,197.78
	l-94.313-91.152l-20.93,8.376l-8.376-8.376l-22.047,11.941l6.67,14.991l113.464,113.464l-159.804,86.847L289.209,509.859z"/>
<path style="fill:#FF6472;" d="M66.488,258.103c0-34.321,27.824-62.145,62.145-62.145s62.145,27.824,62.145,62.145
	c0-34.321,27.824-62.145,62.145-62.145s62.145,27.824,62.145,62.145c0,59.425-124.288,130.503-124.288,130.503
	S66.488,320.876,66.488,258.103z"/>
<path style="fill:#C75163;" d="M190.776,258.103c0-34.321,27.824-62.145,62.145-62.145s62.145,27.824,62.145,62.145
	c0,59.425-124.288,130.503-124.288,130.503V258.103H190.776z"/>
<path style="fill:#FF6472;" d="M261.525,381.549c0-12.853,10.419-23.273,23.273-23.273c12.853,0,23.273,10.419,23.273,23.273
	c0-12.853,10.419-23.273,23.273-23.273s23.273,10.419,23.273,23.273c0,22.254-46.545,48.873-46.545,48.873
	S261.525,405.056,261.525,381.549z"/>
<path style="fill:#C75163;" d="M308.071,381.549c0-12.853,10.419-23.273,23.273-23.273s23.273,10.419,23.273,23.273
	c0,22.254-46.545,48.873-46.545,48.873V381.549z"/>
<path style="fill:#FF6472;" d="M149.863,116.919c0-8.092,6.561-14.653,14.653-14.653s14.653,6.561,14.653,14.653
	c0-8.092,6.561-14.653,14.653-14.653s14.653,6.561,14.653,14.653c0,14.012-29.306,30.772-29.306,30.772
	S149.863,131.72,149.863,116.919z"/>
<path style="fill:#C75163;" d="M179.169,116.919c0-8.092,6.561-14.653,14.653-14.653s14.653,6.561,14.653,14.653
	c0,14.012-29.306,30.772-29.306,30.772V116.919z"/>
<path style="fill:#2B3B4E;" d="M424.827,393.752c-7.501,0-15-2.86-20.723-8.583l-90.85-90.848
	c-11.445-11.445-11.447-29.999,0-41.444c11.445-11.445,29.999-11.448,41.444,0l90.85,90.848c11.447,11.445,11.447,29.999,0,41.444
	C439.827,390.89,432.326,393.752,424.827,393.752z"/>
<path style="fill:#202D3A;" d="M314.139,252.076c-0.293,0.271-0.6,0.515-0.884,0.798c-11.447,11.445-11.445,29.999,0,41.444
	l90.85,90.848c5.722,5.723,13.222,8.583,20.723,8.583s15-2.862,20.723-8.583c0.284-0.284,0.528-0.591,0.798-0.883L314.139,252.076z"
	/>
<circle style="fill:#B5F1F4;" cx="273.032" cy="212.644" r="86.195"/>
<path style="fill:#84DBFF;" d="M212.94,150.88c-0.284,0.278-0.581,0.538-0.862,0.819c-33.661,33.661-33.661,88.238,0,121.899
	s88.236,33.661,121.899,0c0.283-0.283,0.543-0.578,0.821-0.862L212.94,150.88z"/>
<path style="fill:#FFFFFF;" d="M273.027,313.497c-26.938,0-52.262-10.49-71.309-29.539v0.002
	c-39.321-39.322-39.321-103.302-0.002-142.62c39.324-39.324,103.3-39.322,142.622-0.002c39.321,39.322,39.321,103.302,0,142.622
	C325.291,303.007,299.966,313.497,273.027,313.497z M273.027,141.107c-19.11,0-37.076,7.44-50.588,20.954
	c-27.895,27.895-27.893,73.282,0.002,101.174l0,0c13.512,13.514,31.477,20.954,50.586,20.954c19.111,0,37.076-7.44,50.588-20.954
	c13.514-13.512,20.954-31.479,20.954-50.588s-7.44-37.076-20.954-50.588C310.103,148.547,292.137,141.107,273.027,141.107z"/>
<path style="fill:#E6F3FF;" d="M324.436,262.373c-0.276,0.286-0.54,0.581-0.821,0.862c-13.512,13.514-31.477,20.954-50.588,20.954
	c-19.11,0-37.074-7.44-50.586-20.954c-27.895-27.895-27.896-73.282-0.002-101.174c0.281-0.281,0.576-0.545,0.862-0.821
	l-20.721-20.721c-0.284,0.278-0.581,0.538-0.864,0.821c-39.319,39.321-39.319,103.3,0.002,142.62v-0.002
	c19.047,19.049,44.372,29.539,71.309,29.539c26.939,0,52.264-10.49,71.311-29.537c0.283-0.283,0.541-0.578,0.821-0.862
	L324.436,262.373z"/>
</svg>