<?xml version="1.0" encoding="iso-8859-1"?>
<!-- Uploaded to: SVG Repo, www.svgrepo.com, Generator: SVG Repo Mixer Tools -->
<svg height="800px" width="800px" version="1.1" id="Layer_1" xmlns="http://www.w3.org/2000/svg" xmlns:xlink="http://www.w3.org/1999/xlink" 
	 viewBox="0 0 512 512" xml:space="preserve">
<circle style="fill:#FFD15D;" cx="256" cy="256" r="256"/>
<path style="fill:#F9B54C;" d="M335.567,499.374c95.504-31.204,166.281-117.045,175.413-220.6L372.833,140.628L223.246,215.2
	l-62.452,33.778l107.953,107.953l-56.418,19.204L335.567,499.374z"/>
<g>
	<path style="fill:#324A5E;" d="M271.581,382.707h-45.702c-8.768,0-16.143-6.573-17.146-15.282l-13.903-120.634
		c-1.181-10.247,6.83-19.235,17.146-19.235h45.702c8.768,0,16.143,6.573,17.146,15.282l13.903,120.634
		C289.908,373.719,281.895,382.707,271.581,382.707z"/>
	<path style="fill:#324A5E;" d="M183.805,257.595h159.787l29.243-116.967H195.515c-16.089,0-30.113,10.95-34.014,26.558
		l-11.71,46.845C144.258,236.16,160.994,257.595,183.805,257.595z"/>
</g>
<path style="fill:#2B3B4E;" d="M154.596,194.801l-4.806,19.228c-5.532,22.128,11.205,43.565,34.014,43.565h159.787l15.698-62.793
	H154.596z"/>
<polygon style="fill:#FC6F58;" points="337.886,140.628 308.645,257.595 343.592,257.595 372.833,140.628 "/>
<polygon style="fill:#F1543F;" points="324.342,194.801 308.645,257.595 343.592,257.595 359.29,194.801 "/>
</svg>