<svg transform="scale(1)" version="1.1" id="Layer_1" xmlns="http://www.w3.org/2000/svg" xmlns:xlink="http://www.w3.org/1999/xlink" x="0px" y="0px" viewBox="0 0 500 500" xml:space="preserve" class="show_show__wrapper__graphic__5Waiy "><title>React</title><style type="text/css">
	.st0{fill:#8170D6;}
	.st1{opacity:0.32;fill:url(#SVGID_1_);enable-background:new    ;}
	.st2{fill:#F8997C;}
	.st3{fill:#2C1D1A;}
	.st4{fill:#5FAD00;}
	.st5{opacity:0.32;fill:url(#SVGID_00000103235420252531851130000005763608077262122155_);enable-background:new    ;}
	.st6{fill:#D43500;}
	.st7{fill:#68E1FD;}
	.st8{opacity:0.14;fill:#2C1D1A;enable-background:new    ;}
	.st9{fill:#FFFFFF;}
	.st10{fill:url(#SVGID_00000152944021737210068890000002025754960494500024_);}
	.st11{fill:#F9AA43;}
	.st12{opacity:0.3;fill:#2C1D1A;enable-background:new    ;}
	.st13{fill:#53B7B7;}
</style><path class="st0" id="field" d="M256.8,448l212.4-125.5c6.8-3.8,12.6-10,6-14.1L262,185.5c-3.2-2-8.1-3.3-11.3-1.4l-223,129.4
	c-6.8,3.9-8,14.9-1.2,18.8l202.3,115.5C237.4,452.8,248,452.9,256.8,448z"></path><g id="plant"><linearGradient id="SVGID_1_" gradientUnits="userSpaceOnUse" x1="53.8054" y1="144.6932" x2="74.3354" y2="173.8932" gradientTransform="matrix(1 0 0 -1 0 502)"><stop offset="0" style="stop-color: rgb(255, 255, 255); stop-opacity: 0;"></stop><stop offset="1" style="stop-color: rgb(212, 53, 0);"></stop></linearGradient><path class="st1" d="M69.8,347.7l43-24.7L77,309.5l-39.6,21.6C47.7,337.5,58.8,342.6,69.8,347.7z"></path><polyline class="st2" points="71.6,290.5 71.6,317.1 114.6,317.1 114.6,290.5 	"></polyline><ellipse class="st3" cx="93.1" cy="290.5" rx="21.5" ry="10.6"></ellipse><ellipse class="st2" cx="93.1" cy="318.1" rx="21.5" ry="10.6"></ellipse><path class="st4" d="M117.2,228.8c-4.5-1.9-10.8-8-16.3-7.8c-2.1,5.1-2.7,11.1-3.3,16.3c-1,9-1.2,18.1-0.6,27.2c0.1,2,0.3,4,0.5,6
		c0,0.6,0.2,1.2,0.5,1.7v21c0,0.4,0.3,0.7,0.7,0.7c0.4,0,0.7-0.3,0.7-0.7V273c2.2-0.7,4.2-1.7,6.2-2.8c4-2.5,7.1-6.4,8.6-10.9
		c3.5-9.6,1.3-20.4,4.6-30C118.1,229.1,117.7,229,117.2,228.8z"></path><path class="st4" d="M107.9,213c-2.6,1.5-4.7,3.7-6.1,6.3c-0.4,0.6-0.7,1.2-1,1.9l-0.2,0.4l0,0c-0.4,1.1-0.7,2.2-1,3.3
		c0.5-0.9,1.3-1.5,2.3-1.8c1.1-0.5,2.4-0.6,3.6-0.3c1.2,0.4,2.3,1,3.3,1.8c1.5,0.9,3,2,4.5,2.9c7.1,4.5,16.6,5,22.1-1.6
		c0.1-0.3,0.1-0.5,0.2-0.8C136.3,220.5,123.6,203.8,107.9,213z"></path><path class="st4" d="M132.2,228.6c0.3-0.2,0.6-0.4,0.9-0.6c0-0.2,0-0.4-0.2-0.5c-4.3-4.4-8.9-8.8-14.8-10.9
		c-4.2-1.6-8.8-2.1-13.2-1.3c-0.5,0.6-0.9,1.1-1.3,1.7c4.8-1.6,10.8-0.6,15.2,1.3c5.2,2.2,9.3,6.2,13.2,10.2
		C132,228.5,132.1,228.6,132.2,228.6z"></path><path class="st4" d="M60,238.2c-6.3,3.3-10.1,10.1-9.6,17.2c0.5,12.7,21.4,0.3,27-10.4s6.4,4.6,6.4,4.6"></path><path class="st4" d="M78.8,233.8c-3.9-0.1-7.8,0.5-11.6,1.6c-2.5,0.6-5,1.5-7.2,2.8c1.3,0.9,2.7,1.6,4.2,2.2
		c2.6,1.1,5.4,2.4,6.8,4.8c0.3,0.6,0.6,1.2,0.8,1.9c1.3,4.2,0.2,9.2,1.9,13.4c1.8,4.4,5.2,7.9,10.2,8.2c5.9,0.4,8.6-5.3,9.8-10.2
		s2.8-11.6,0.9-16.6C92.3,236.2,84.4,234.1,78.8,233.8z"></path><path class="st4" d="M86.6,253.6c-2.5-8-7.7-15.6-15.4-19.1h-0.3l-0.4,0.1c-0.5,0.1-0.9,0.2-1.4,0.4c8.9,3.3,14.5,12.1,16.8,21.1
		c2.9,11.5,1.9,24,2,35.7c0,0.3,0.3,0.6,0.6,0.6c0.3,0,0.6-0.3,0.6-0.6C89.2,279.2,90.3,265.8,86.6,253.6z"></path></g><g id="lamp"><linearGradient id="SVGID_00000176040596003334209100000009641303868875231147_" gradientUnits="userSpaceOnUse" x1="381.3382" y1="151.3213" x2="401.8782" y2="180.5213" gradientTransform="matrix(1 0 0 -1 0 502)"><stop offset="0" style="stop-color: rgb(255, 255, 255); stop-opacity: 0;"></stop><stop offset="1" style="stop-color: rgb(212, 53, 0);"></stop></linearGradient><polyline points="
		445.2,319.8 374.9,360.2 346,340.9 397.7,315.3 	" style="opacity: 0.32; fill: url(&quot;#SVGID_00000176040596003334209100000009641303868875231147_&quot;);"></polyline><path class="st3" d="M406.8,293.9c-0.8,0-1.6-0.2-2.4-0.5l-0.4,2.4l38.7,1v-2.9H406.8z"></path><path class="st3" d="M404.4,293.5l-0.4,2.3l21.4,12.4v-3C418.2,301.7,411.2,297.6,404.4,293.5z"></path><path class="st3" d="M426,126.5c-1.3,0.2-2.6,0-3.7-0.5l-24.6,189.4c1.5,0.9,3,1.7,4.5,2.6l24.8-191.5
		C426.7,126.4,426.3,126.4,426,126.5z"></path><path class="st3" d="M431.6,126.3c-0.9,0.1-1.8,0.1-2.7,0c-0.7,0-1.5,0-2.2,0.1l16.6,194.2c1.3-0.6,2.6-1.2,3.9-1.7l0.7-0.3l0.1,0
		L431.6,126.3z"></path><path class="st3" d="M428.9,126.3c-1,0-2,0.1-3,0.2c-0.4,0.1-0.8,0.1-1.2,0.1l-1.6,205.2l0,0c0.8-0.3,1.7-0.4,2.6-0.2h1.4l0.8-0.1
		l1.6-205.1L428.9,126.3z"></path><path class="st2" d="M402.2,129.6V172c0,0,48.8,1.4,48.8,0v-42.4"></path><ellipse class="st6" cx="426.6" cy="129.5" rx="24.4" ry="11.3"></ellipse><ellipse class="st2" cx="426.6" cy="172.6" rx="24.4" ry="11.3"></ellipse></g><g id="task_completed"><path class="st7" d="M206.1,252.9l109.6,63V118.6c0,0,0.8-9.7-6.7-10.6L206.1,68.7V252.9z"></path><path class="st8" d="M206.1,252.9l109.6,63V118.6c0,0,0.8-9.7-6.7-10.6L206.1,68.7V252.9z"></path><path class="st7" d="M299,134.6c0,0-1.9-22,13.8-24.6L206.9,49.3c0,0-7.6-3.4-12.1,3.2s-4.8,13.9-4.3,19.3L299,134.6z"></path><path class="st9" d="M222.1,211.6l23.9,13.6l37.7,21.4l8.6,4.9c0.5,0.3,1.2,0.1,1.5-0.4s0.1-1.2-0.4-1.5L269.5,236l-37.7-21.5
		l-8.6-4.9c-0.5-0.3-1.2-0.1-1.5,0.4S221.6,211.3,222.1,211.6L222.1,211.6L222.1,211.6z"></path><path class="st9" d="M222.1,222l23.9,13.6l37.7,21.4l8.6,4.9c0.5,0.3,1.2,0.1,1.5-0.4s0.1-1.2-0.4-1.5l-23.9-13.6l-37.7-21.5
		l-8.6-4.9c-0.6-0.3-1.2,0-1.5,0.5C221.5,221,221.7,221.6,222.1,222L222.1,222z"></path><path class="st9" d="M222.1,232.5l23.9,13.6l37.7,21.5l8.6,4.9c0.6,0.3,1.2,0,1.5-0.5c0.2-0.5,0.1-1.1-0.4-1.4l-23.9-13.6
		l-37.7-21.5l-8.6-4.9c-0.5-0.3-1.2-0.1-1.5,0.4S221.6,232.2,222.1,232.5L222.1,232.5L222.1,232.5z"></path><path class="st9" d="M220.4,172.6l23.9,13.6l37.7,21.5l8.6,4.9c0.6,0.3,1.2,0,1.5-0.5c0.2-0.5,0.1-1.1-0.4-1.4L267.8,197
		l-37.7-21.5l-8.6-4.9c-0.5-0.3-1.2-0.1-1.5,0.5C219.7,171.6,219.9,172.3,220.4,172.6L220.4,172.6z"></path><path class="st9" d="M220.4,183l23.9,13.6l37.7,21.4l8.6,4.9c0.6,0.3,1.3,0.1,1.6-0.4s0.1-1.3-0.4-1.6l-23.9-13.5l-37.7-21.5
		l-8.6-4.9c-0.6-0.3-1.2,0-1.5,0.5C219.8,182.1,220,182.7,220.4,183z"></path><path class="st9" d="M220.4,193.5l23.9,13.6l37.7,21.5l8.6,4.9c0.6,0.3,1.2,0,1.5-0.5c0.2-0.5,0.1-1.1-0.4-1.4l-23.9-13.6
		l-37.7-21.4l-8.6-4.9c-0.6-0.3-1.2,0-1.5,0.5C219.8,192.6,220,193.2,220.4,193.5L220.4,193.5z"></path><ellipse class="st9" transform="matrix(0.9595 -0.2818 0.2818 0.9595 -32.2087 78.2832)" cx="256" cy="151.1" rx="19.5" ry="27.2"></ellipse><path class="st4" d="M243.3,149.8l6.6,14c0.5,1.1,2,0.8,2.6,0l13.1-17.1l1.9-2.4c0.4-0.7,0.2-1.6-0.5-2.1c-0.7-0.4-1.6-0.2-2,0.5
		l-13.1,17.1l-1.9,2.4h2.6l-6.6-14C245,146.5,242.5,148.1,243.3,149.8L243.3,149.8z"></path><path class="st9" d="M260,181.2c-10.6,0-21.4-9.9-25.6-24.2c-2.3-8-2.3-16.1,0.1-22.9s6.9-11.6,12.7-13.3
		c11.9-3.5,25.4,7.1,30.3,23.5l0,0c2.3,8,2.3,16.1,0,22.9s-6.9,11.6-12.7,13.3C263.2,181,261.6,181.3,260,181.2z M251.8,121.2
		c-1.5,0-3,0.2-4.4,0.6c-5.4,1.6-9.7,6.1-12,12.7s-2.3,14.5-0.1,22.3c4.1,13.9,14.5,23.5,24.6,23.5c1.5,0,3-0.2,4.4-0.6
		c5.5-1.6,9.7-6.1,12-12.6s2.3-14.5,0-22.3l0,0C272.4,130.8,261.9,121.2,251.8,121.2L251.8,121.2z"></path></g><g id="person"><linearGradient id="SVGID_00000163765742825685927140000004802009912073456526_" gradientUnits="userSpaceOnUse" x1="271.4997" y1="102.5206" x2="242.3897" y2="85.1306" gradientTransform="matrix(1 0 0 -1 0 502)"><stop offset="0" style="stop-color: rgb(44, 29, 26);"></stop><stop offset="1" style="stop-color: rgb(129, 112, 214); stop-opacity: 0;"></stop></linearGradient><path d="M290.1,403c-8.2-6.3-16.9-11.7-26.1-16.4
		c-12.5,7.3-18.1,11.7-37.3,22.6c14.5,8.8,25.8,17,27.4,17.9l24.7-15.1C279.1,411.1,289.9,403.9,290.1,403z" style="fill: url(&quot;#SVGID_00000163765742825685927140000004802009912073456526_&quot;);"></path><path class="st2" d="M248.9,198.3c-0.9-2.4-1.7-4.9-2.3-7.4c-0.3-1.8,1.5-8.5,0.2-8.9s-2.8,4.2-2.8,4.2s-3.7-8.3-4.7-8.7
		s-4-0.7-4.7,0.1s-2.7,5.6-1.8,7.2c1.9,2.9,4,5.7,6.2,8.4c0.3,0.2,4.2,8.6,4.7,8.8S248.5,200.1,248.9,198.3z"></path><path class="st11" d="M289.1,225c0,0-20.1-8-23.6-10.9s-16.2-17.8-16.2-17.8s-7.3,2.7-7.2,6.4c0,0,10.2,17.1,15,21.7
		s22.2,16.1,26,15.9S289.1,225,289.1,225z"></path><path class="st12" d="M289.1,225c0,0-20.1-8-23.6-10.9s-16.2-17.8-16.2-17.8s-7.3,2.7-7.2,6.4c0,0,10.2,17.1,15,21.7
		s22.2,16.1,26,15.9S289.1,225,289.1,225z"></path><path class="st6" d="M276.3,388.1c0,0-4.8-4.1-10.2-2.5s-4.3,5.6-0.9,8.2s16.5,11.4,20.5,11.3s4.9-3.3,5-5.6s-1.2-10.2-1.2-10.2"></path><path class="st2" d="M279.2,387.8c-0.1,0.5-0.5,1-1.1,0.9c-0.1,0-0.2,0-0.2-0.1c-1.5-0.5-2.9-1-4.3-1.6c0,0-4.6,0-1.8,4.6
		s12.6,6,15.6,4.3s1-6.6,1-6.6"></path><path class="st6" d="M264.9,397.1c0,0-4.8-4.1-10.2-2.5s-4.3,5.6-0.9,8.2c3.4,2.5,16.5,11.4,20.6,11.3s4.9-3.3,5-5.6
		s-1.2-10.2-1.2-10.2"></path><path class="st2" d="M267.9,396.9c-0.1,0.5-0.5,1-1.1,0.9c-0.1,0-0.2,0-0.3-0.1c-1.5-0.5-2.9-1-4.3-1.6c0,0-4.6,0-1.8,4.6
		s12.6,6,15.6,4.3s1-6.6,1-6.6"></path><path class="st13" d="M262.9,270.4c-1.6,3.5-2.4,54.4-1.8,67.4s6.9,59.1,6.9,59.1s3.6,5.4,9.6,5s4.9-5.2,4.9-5.2s7.7,3.6,11-4.3
		c1.2-2.9,7.1-83.9,7.1-93.1c-0.2-11-3.2-21.8-8.8-31.3"></path><path class="st12" d="M282.4,396.7c0,0,3.6-102.7,3.2-105.7s1,22.5,0.9,29.5C286.4,325.5,283.3,389.7,282.4,396.7z"></path><path class="st11" d="M262.9,270.4c0,0-5.3-36.4,2.2-43.2s28.5-11.7,32.5-8.3s-2,42-5.9,49.1S265.7,273.2,262.9,270.4z"></path><path class="st2" d="M272.4,200.4c-0.2,0.5-3.9,14.7,2.6,16.7s7.8-5.7,8.5-6.1s2.7-1.1,2.6-2.7s-2.6-1.6-2.6-1.6s-1-4.1-3.9-5.8
		S272.4,200.4,272.4,200.4z"></path><path class="st3" d="M278.5,204.4c0,0-5.4,0.1-7.8-2.2c-1.8-1.8-1.7-4.7,0.1-6.4c0.1-0.1,0.2-0.2,0.3-0.3c0,0-2.1-4.3,1.9-5.4
		c0,0,0.4-3.9,8.4-2.1s15.4,7.5,15.5,14.9s0.6,8.2,3.3,9.9s1.9,8.1-5.1,8.4s-16.5-0.4-17.4-3.8s4.4-3.8,5.1-7.3
		S280.3,204.5,278.5,204.4z"></path><path class="st2" d="M252.4,265.1c0,0-5.6,6-7.2,6.6c-2.5,1.1-4.8,2.5-7.1,4c0.8,0.7,1.4,1.4,2,2.3c0,0,0,0.1,0,0.1
		c0.7-0.5,1.2-0.9,1.2-0.6c-0.1,0.8-5.5,8-6.3,9.1s1.5,4.6,1.5,4.6c3.6,1.2,7.6-2.4,10.2-4.8s3.8-8.1,4.8-8.8s8.4-5.7,8.9-7.2
		S252.4,265.1,252.4,265.1z"></path><path class="st11" d="M263.4,229.8c-1.5,3.2-1.4,6.8-2.1,10.2c-0.5,2.5-1,5.1-1.5,7.6c-0.4,2.5-1.2,5-2.4,7.3
		c-2,3.4-4.7,6.4-7.1,9.6c-0.6,0.7-1.1,1.5-1.4,2.5c-0.2,2.2,2.6,8.6,10.4,7.8c4-3.2,7.7-6.7,11.1-10.5c4.4-5.2,8.6-22.7,8.1-28.5
		c-0.3-4-2.4-8.4-6.2-10.1c-2.6-1.1-5.5-0.4-7.4,1.7C264.4,228,263.8,228.9,263.4,229.8z"></path><path class="st12" d="M263.8,271c0,0,6.6-5.6,8.2-8.9s3.7-9.4,3.7-9.4s-3,17.5-5.9,19.8C269.8,272.5,264.8,271.6,263.8,271z"></path></g></svg>