<svg width="237.8" height="71.201" viewBox="0 0 237.8 71.201" xmlns="http://www.w3.org/2000/svg"><g id="svgGroup" stroke-linecap="round" fill-rule="evenodd" font-size="9pt" stroke="#000" stroke-width="0.25mm" fill="#000" style="stroke:#000;stroke-width:0.25mm;fill:#000"><path d="M 203.5 66.8 Q 204.3 58.8 207.1 52.3 A 76.523 76.523 0 0 1 207.188 52.098 Q 209.953 45.728 213.3 41.2 A 61.97 61.97 0 0 1 215.001 39 Q 216.225 37.49 217.394 36.271 A 28.389 28.389 0 0 1 219.7 34.1 A 32.774 32.774 0 0 1 220.272 33.634 Q 222.125 32.159 223.251 31.754 A 2.257 2.257 0 0 1 224 31.6 Q 224.539 31.6 224.962 31.833 A 2.009 2.009 0 0 1 225.6 32.4 A 2.553 2.553 0 0 1 225.942 33.033 Q 226.077 33.391 226.141 33.831 A 6.017 6.017 0 0 1 226.2 34.7 Q 226.2 36.7 225.9 38.45 Q 225.6 40.2 225.3 42.2 L 223.6 52.6 Q 223.3 54.4 223 56.85 Q 222.7 59.3 222.5 61.5 A 63.797 63.797 0 0 0 222.39 62.858 Q 222.3 64.16 222.3 65.1 A 14.105 14.105 0 0 0 222.301 65.275 Q 222.308 65.824 222.356 66.581 A 47.706 47.706 0 0 0 222.4 67.2 A 7.6 7.6 0 0 0 222.488 67.912 A 6.278 6.278 0 0 0 223 69.55 A 2.391 2.391 0 0 0 223.165 69.844 Q 223.667 70.6 224.6 70.6 L 231.9 70.6 L 236.7 39.3 Q 237.1 36.7 237.45 34.35 A 34.207 34.207 0 0 0 237.649 32.764 A 28.394 28.394 0 0 0 237.8 29.9 A 18.213 18.213 0 0 0 237.797 29.541 Q 237.744 26.869 236.9 24.9 A 8.126 8.126 0 0 0 236.828 24.738 A 6.62 6.62 0 0 0 234.15 21.7 Q 232.929 20.974 231.163 20.727 A 14.211 14.211 0 0 0 229.2 20.6 A 11.19 11.19 0 0 0 226.307 21.012 Q 223.663 21.721 220.5 23.65 A 24.596 24.596 0 0 0 217.625 25.719 Q 215.774 27.253 213.916 29.311 A 54.016 54.016 0 0 0 210.45 33.6 A 47.775 47.775 0 0 0 207.916 37.459 Q 204.346 43.482 201.3 52.1 L 203.5 66.8 L 205.3 49.4 L 202 50.6 A 208.01 208.01 0 0 1 202.999 46.977 Q 203.486 45.276 203.947 43.795 A 91.305 91.305 0 0 1 204.95 40.75 A 206.936 206.936 0 0 0 205.74 38.456 Q 206.108 37.365 206.423 36.387 A 100.514 100.514 0 0 0 207.1 34.2 Q 207.9 31.5 207.9 29 Q 207.9 26.9 207.15 24.95 A 6.359 6.359 0 0 0 206.451 23.619 A 6.699 6.699 0 0 0 204.55 21.8 Q 203.278 20.975 201.321 20.717 A 14.742 14.742 0 0 0 199.4 20.6 Q 196.8 20.6 193.25 22.3 A 20.471 20.471 0 0 0 191.868 23.03 Q 188.948 24.714 185.8 27.7 A 35.365 35.365 0 0 0 184.675 28.818 Q 181.351 32.267 178.1 37.4 Q 174.3 43.4 171.3 52.1 L 173.7 66.8 L 175.4 50.5 L 171.7 51.1 L 174.3 42.9 A 220.43 220.43 0 0 0 174.529 42.239 Q 174.878 41.224 175.263 40.075 A 401.13 401.13 0 0 0 176.1 37.55 A 134.096 134.096 0 0 0 176.815 35.305 A 112.329 112.329 0 0 0 177.85 31.75 Q 178.401 29.731 178.547 28.493 A 6.842 6.842 0 0 0 178.6 27.7 A 14.771 14.771 0 0 0 178.477 25.765 A 11.488 11.488 0 0 0 177.65 22.7 A 4.794 4.794 0 0 0 177.052 21.662 A 2.834 2.834 0 0 0 174.7 20.5 L 167.7 20.5 L 163 62.1 A 108.294 108.294 0 0 0 162.81 63.805 Q 162.511 66.71 162.55 68.2 Q 162.585 69.523 162.911 70.143 A 1.108 1.108 0 0 0 163.25 70.55 Q 163.717 70.874 164.52 70.965 A 6.057 6.057 0 0 0 165.2 71 A 5.513 5.513 0 0 0 165.319 70.999 Q 165.835 70.988 166.56 70.882 A 21.023 21.023 0 0 0 167.35 70.75 A 13.593 13.593 0 0 0 168.049 70.601 A 15.53 15.53 0 0 0 170.1 69.95 A 11.6 11.6 0 0 0 171.021 69.543 A 9.463 9.463 0 0 0 172.55 68.6 Q 172.985 68.269 173.257 67.903 A 2.193 2.193 0 0 0 173.7 66.8 Q 174.5 58.8 177.3 52.3 A 73.882 73.882 0 0 1 177.388 52.098 Q 180.154 45.728 183.55 41.2 A 59.401 59.401 0 0 1 185.279 39 Q 186.527 37.49 187.726 36.271 A 27.987 27.987 0 0 1 190.1 34.1 A 33.219 33.219 0 0 1 190.556 33.739 Q 193.305 31.6 194.6 31.6 Q 194.97 31.6 195.271 31.679 A 1.596 1.596 0 0 1 196.2 32.3 A 1.853 1.853 0 0 1 196.237 32.354 Q 196.565 32.849 196.66 33.668 A 6.324 6.324 0 0 1 196.7 34.4 Q 196.7 36.4 196.45 38.35 Q 196.2 40.3 195.8 42.3 L 194 52.6 A 431.969 431.969 0 0 0 193.957 52.853 Q 192.794 59.662 192.45 63 A 142.149 142.149 0 0 0 192.397 63.526 Q 192.1 66.519 192.1 67.9 Q 192.1 69.109 192.302 69.812 A 2.225 2.225 0 0 0 192.5 70.3 A 1.015 1.015 0 0 0 192.896 70.675 Q 193.291 70.898 193.991 70.968 A 7.138 7.138 0 0 0 194.7 71 A 5.63 5.63 0 0 0 194.783 71 Q 195.377 70.991 196.197 70.858 A 19.76 19.76 0 0 0 197.05 70.7 Q 198.5 70.4 199.95 69.9 A 9.582 9.582 0 0 0 201.093 69.425 A 7.248 7.248 0 0 0 202.4 68.6 A 4.421 4.421 0 0 0 202.494 68.523 Q 203.405 67.752 203.5 66.8 Z M 96.3 62.8 L 100 29.2 L 108 29.2 A 6.528 6.528 0 0 1 108.903 29.258 Q 110.16 29.434 110.65 30.15 A 2.592 2.592 0 0 1 110.957 30.801 Q 111.187 31.498 111.263 32.612 A 17.623 17.623 0 0 1 111.3 33.8 L 111.3 35 Q 111.3 35.6 111.2 36.2 L 108.1 62 A 33.102 33.102 0 0 1 107.648 64.565 Q 107.386 65.761 107.048 66.805 A 19.857 19.857 0 0 1 106.95 67.1 Q 106.2 69.3 104.2 69.6 A 162.781 162.781 0 0 1 96.373 70.573 A 141.139 141.139 0 0 1 93.85 70.8 A 122.493 122.493 0 0 1 86.967 71.169 A 105.605 105.605 0 0 1 84.4 71.2 A 50.027 50.027 0 0 1 76.47 70.604 Q 72.029 69.891 68.315 68.324 A 29.887 29.887 0 0 1 67.25 67.85 Q 60.1 64.5 56.3 57.8 A 27.894 27.894 0 0 1 53.335 49.807 Q 52.604 46.383 52.513 42.438 A 49.166 49.166 0 0 1 52.5 41.3 A 50.472 50.472 0 0 1 53.587 30.648 A 42.963 42.963 0 0 1 55.3 24.75 A 38.865 38.865 0 0 1 62.038 13.069 A 36.969 36.969 0 0 1 63.3 11.65 Q 68.5 6.1 75.85 3.05 A 39.902 39.902 0 0 1 86.767 0.3 A 49.785 49.785 0 0 1 92.3 0 A 49.071 49.071 0 0 1 96.437 0.163 Q 100.505 0.508 103.167 1.588 A 13.127 13.127 0 0 1 103.55 1.75 Q 107.5 3.5 107.5 8 Q 107.5 10.044 107.029 11.58 A 8.151 8.151 0 0 1 106.85 12.1 A 3.869 3.869 0 0 1 106.478 12.844 Q 105.85 13.8 104.8 13.8 Q 103.828 13.8 102.762 13.234 A 6.473 6.473 0 0 1 102.7 13.2 A 66.931 66.931 0 0 0 101.564 12.596 Q 100.962 12.282 100.29 11.945 A 108.361 108.361 0 0 0 100.2 11.9 Q 97.8 10.7 95 9.35 A 12.696 12.696 0 0 0 92.089 8.381 Q 90.278 8 88.1 8 Q 81.7 8 76.65 11.9 A 23.405 23.405 0 0 0 71.177 18.006 A 31.48 31.48 0 0 0 68.7 22.85 A 36.902 36.902 0 0 0 66.48 30.798 Q 65.864 34.47 65.806 38.634 A 62.421 62.421 0 0 0 65.8 39.5 A 38.284 38.284 0 0 0 66.161 44.932 Q 66.553 47.663 67.372 49.911 A 17.298 17.298 0 0 0 69.15 53.5 A 16.755 16.755 0 0 0 75.839 59.327 A 22.856 22.856 0 0 0 79.3 60.7 Q 84.566 62.326 91.871 62.693 A 88.383 88.383 0 0 0 96.3 62.8 Z M 1 50.3 L 4.8 20.5 L 11.8 20.5 Q 13.486 20.5 14.041 22.419 A 4.974 4.974 0 0 1 14.05 22.45 A 13.223 13.223 0 0 1 14.406 24.175 Q 14.527 25.027 14.573 25.995 A 25.731 25.731 0 0 1 14.6 27.2 Q 14.6 29.3 14.3 32.7 Q 14 36.1 13.4 40.2 L 12.2 48.4 A 84.674 84.674 0 0 0 11.898 50.735 Q 11.734 52.163 11.65 53.4 Q 11.5 55.6 11.5 57 Q 11.5 59 11.95 60.05 A 1.674 1.674 0 0 0 12.491 60.756 Q 12.803 60.987 13.242 61.063 A 2.691 2.691 0 0 0 13.7 61.1 A 2.786 2.786 0 0 0 14.709 60.888 Q 15.914 60.417 17.5 58.9 A 29.95 29.95 0 0 0 19.41 56.882 Q 20.836 55.238 22.35 53.1 A 69.742 69.742 0 0 0 26.545 46.379 A 76.853 76.853 0 0 0 27.1 45.35 A 66.446 66.446 0 0 0 29.538 40.26 A 55.053 55.053 0 0 0 30.7 37.3 A 29.966 29.966 0 0 0 31.497 34.749 Q 31.835 33.453 31.984 32.307 A 13.308 13.308 0 0 0 32.1 30.6 Q 32.1 28.839 31.778 27.518 A 7.885 7.885 0 0 0 31.55 26.75 A 10.381 10.381 0 0 1 31.29 25.913 Q 31.028 24.916 31.1 24.2 A 1.445 1.445 0 0 1 31.415 23.313 Q 31.702 22.934 32.25 22.6 Q 33.4 21.9 35 21.45 Q 36.6 21 38.2 20.75 Q 39.8 20.5 40.7 20.5 Q 42.335 20.5 43.276 22.351 A 6.145 6.145 0 0 1 43.35 22.5 A 6.211 6.211 0 0 1 43.795 23.838 Q 44.1 25.228 43.989 27.141 A 21.381 21.381 0 0 1 43.9 28.2 L 39.2 70.6 L 32.2 70.6 A 1.96 1.96 0 0 1 30.63 69.838 A 3.247 3.247 0 0 1 30.3 69.35 A 7.996 7.996 0 0 1 29.538 67.419 A 9.776 9.776 0 0 1 29.35 66.5 Q 29.148 65.207 29.109 64.436 A 6.733 6.733 0 0 1 29.1 64.1 Q 29.1 61.8 29.75 59.1 Q 30.4 56.4 31.65 52.2 Q 32.768 48.443 34.326 42.766 A 876.11 876.11 0 0 0 34.7 41.4 L 34.7 43.1 A 89.504 89.504 0 0 1 31.663 50.174 Q 30.022 53.557 28.259 56.316 A 42.921 42.921 0 0 1 26.1 59.4 Q 22.623 63.913 19.201 66.565 A 22.639 22.639 0 0 1 16.8 68.2 A 23.093 23.093 0 0 1 13.434 69.846 Q 11.512 70.587 9.705 70.807 A 12.435 12.435 0 0 1 8.2 70.9 A 11.372 11.372 0 0 1 5.777 70.658 Q 4.196 70.313 3.014 69.478 A 6.615 6.615 0 0 1 2.15 68.75 Q 0.37 66.97 0.064 63.715 A 15.124 15.124 0 0 1 0 62.3 Q 0 60.8 0.05 59.3 Q 0.1 57.8 0.35 55.7 Q 0.574 53.822 0.917 50.983 A 4598.239 4598.239 0 0 1 1 50.3 Z M 126.8 53.2 L 125.5 47.2 A 49.052 49.052 0 0 0 132.023 45.935 A 40.87 40.87 0 0 0 135.6 44.8 A 23.906 23.906 0 0 0 139.28 43.093 A 17.326 17.326 0 0 0 143 40.25 A 9.646 9.646 0 0 0 145.264 36.712 A 9.504 9.504 0 0 0 145.8 33.5 A 11.114 11.114 0 0 0 145.703 31.976 Q 145.598 31.225 145.382 30.612 A 4.489 4.489 0 0 0 144.75 29.4 A 3.102 3.102 0 0 0 143.403 28.395 Q 142.434 28 141 28 Q 136.9 28 134.05 31 Q 131.2 34 129.75 38.8 Q 128.3 43.6 128.3 49 Q 128.3 54.364 129.515 57.109 A 5.981 5.981 0 0 0 130.55 58.75 Q 132.592 60.974 136.406 61.179 A 14.775 14.775 0 0 0 137.2 61.2 A 24.735 24.735 0 0 0 141.133 60.902 A 17.964 17.964 0 0 0 145.25 59.75 Q 148.471 58.397 150.864 56.912 A 28.271 28.271 0 0 0 151.2 56.7 Q 151.813 56.317 152.308 56.052 A 11.543 11.543 0 0 1 152.6 55.9 Q 153.2 55.6 153.6 55.6 A 1.004 1.004 0 0 1 154.018 55.685 Q 154.238 55.785 154.4 56 Q 154.7 56.4 154.7 56.9 Q 154.7 58.7 153.101 61.099 A 6.554 6.554 0 0 0 153.1 61.1 Q 151.659 63.261 149.124 65.341 A 29.577 29.577 0 0 1 148.55 65.8 A 25.341 25.341 0 0 1 144.23 68.494 A 31.397 31.397 0 0 1 141.6 69.65 A 23.073 23.073 0 0 1 135.294 71.091 A 27.889 27.889 0 0 1 132.8 71.2 A 19.606 19.606 0 0 1 127.92 70.627 A 13.475 13.475 0 0 1 120.9 66.35 A 16.25 16.25 0 0 1 117.577 60.007 Q 116.892 57.568 116.742 54.663 A 32.269 32.269 0 0 1 116.7 53 A 43.845 43.845 0 0 1 117.387 45.092 A 36.101 36.101 0 0 1 118.7 40 A 34.129 34.129 0 0 1 122.182 32.635 A 30.098 30.098 0 0 1 124.3 29.7 Q 127.9 25.3 132.75 22.9 A 23.439 23.439 0 0 1 143.211 20.5 A 27.043 27.043 0 0 1 143.3 20.5 A 25.56 25.56 0 0 1 147.238 20.783 Q 149.294 21.105 150.948 21.79 A 11.182 11.182 0 0 1 153.7 23.4 A 9.422 9.422 0 0 1 157.128 29.457 A 13.999 13.999 0 0 1 157.3 31.7 Q 157.3 37.2 153.65 41.3 Q 150.561 44.77 145.182 47.38 A 43.555 43.555 0 0 1 143.15 48.3 Q 137.263 50.792 129.419 52.62 A 125.352 125.352 0 0 1 126.8 53.2 Z" vector-effect="non-scaling-stroke"/></g></svg>