<svg width="324" height="93" viewBox="0 0 324 93" fill="none" xmlns="http://www.w3.org/2000/svg">
<path d="M13.28 91.664C9.952 91.664 7.05067 90.7253 4.576 88.848C2.10133 86.8853 0.864 83.8133 0.864 79.632C0.864 78.352 0.864 77.1573 0.864 76.048C0.949334 74.9387 1.07733 73.5733 1.248 71.952C1.504 70.3307 1.80267 68.112 2.144 65.296L7.008 27.152H18.528C19.9787 27.152 21.344 28.0053 22.624 29.712C23.9893 31.3333 24.672 33.3387 24.672 35.728C24.672 37.52 24.544 39.8667 24.288 42.768C24.032 45.6693 23.648 48.8693 23.136 52.368L21.472 63.504C21.1307 65.8933 20.8747 67.8133 20.704 69.264C20.5333 70.6293 20.448 71.9093 20.448 73.104C20.448 73.9573 20.5333 74.768 20.704 75.536C20.96 76.2187 21.472 76.56 22.24 76.56C23.264 76.56 24.5867 75.7067 26.208 74C27.9147 72.2933 29.664 70.032 31.456 67.216C33.3333 64.4 35.0827 61.3707 36.704 58.128C38.3253 54.8 39.648 51.5573 40.672 48.4C41.696 45.2427 42.208 42.4693 42.208 40.08C42.208 38.1173 41.952 36.496 41.44 35.216C41.0133 33.8507 40.8427 32.7413 40.928 31.888C40.928 31.12 41.6107 30.4373 42.976 29.84C44.3413 29.2427 45.9627 28.7733 47.84 28.432C49.8027 28.0053 51.68 27.7067 53.472 27.536C55.264 27.28 56.5867 27.152 57.44 27.152C59.232 27.152 60.64 28.0053 61.664 29.712C62.7733 31.4187 63.1573 33.8507 62.816 37.008L56.8 91.28H46.304C45.1947 91.28 44.1707 90.8533 43.232 90C42.2933 89.0613 41.5253 87.952 40.928 86.672C40.3307 85.392 40.032 84.1547 40.032 82.96C40.032 80.9973 40.3733 78.864 41.056 76.56C41.7387 74.256 42.6347 71.312 43.744 67.728C44.9387 64.144 46.304 59.536 47.84 53.904V56.08C44.512 64.784 40.9707 71.7387 37.216 76.944C33.4613 82.1493 29.5787 85.904 25.568 88.208C21.5573 90.512 17.4613 91.664 13.28 91.664ZM116.378 92.048C107.845 92.048 100.293 90.64 93.722 87.824C87.2367 84.9227 82.1593 80.6133 78.49 74.896C74.8207 69.1787 72.986 62.1387 72.986 53.776C72.986 46.096 74.3087 39.056 76.954 32.656C79.5993 26.1707 83.2687 20.5813 87.962 15.888C92.7407 11.1093 98.33 7.43999 104.73 4.88C111.215 2.23466 118.255 0.911995 125.85 0.911995C133.359 0.911995 139.077 1.76533 143.002 3.47199C147.013 5.09333 149.018 8.25066 149.018 12.944C149.018 15.3333 148.506 17.4667 147.482 19.344C146.458 21.136 145.306 22.032 144.026 22.032C143.258 22.032 142.063 21.5627 140.442 20.624C138.821 19.6 137.455 18.7467 136.346 18.064C134.298 16.6987 132.037 15.3333 129.562 13.968C127.087 12.5173 124.271 11.792 121.114 11.792C115.994 11.792 111.514 13.4133 107.674 16.656C103.919 19.8133 100.975 24.3787 98.842 30.352C96.794 36.24 95.77 43.28 95.77 51.472C95.77 59.0667 97.0927 64.9973 99.738 69.264C102.469 73.4453 106.266 76.3893 111.13 78.096C116.079 79.8027 121.839 80.656 128.41 80.656L133.146 38.288H145.69C148.165 38.288 149.829 38.7147 150.682 39.568C151.621 40.336 152.09 41.872 152.09 44.176C152.09 44.688 152.09 45.2 152.09 45.712C152.09 46.224 152.047 46.736 151.962 47.248L147.994 80.272C147.653 82.7467 147.141 84.9227 146.458 86.8C145.861 88.6773 144.709 89.744 143.002 90C138.394 90.6827 133.743 91.1947 129.05 91.536C124.442 91.8773 120.218 92.048 116.378 92.048ZM181.588 92.048C175.017 92.048 169.599 90 165.332 85.904C161.151 81.7227 159.06 76.0053 159.06 68.752C159.06 62.6933 159.999 57.1467 161.876 52.112C163.753 47.0773 166.356 42.6827 169.684 38.928C173.097 35.1733 176.98 32.272 181.332 30.224C185.769 28.176 190.463 27.152 195.412 27.152C200.873 27.152 205.481 28.432 209.236 30.992C212.991 33.4667 214.868 37.0933 214.868 41.872C214.868 46.48 213.119 50.5333 209.62 54.032C206.207 57.5307 201.428 60.56 195.284 63.12C189.14 65.5947 182.015 67.6853 173.908 69.392L172.244 60.432C176.34 59.92 180.095 58.9813 183.508 57.616C187.007 56.1653 189.865 54.288 192.084 51.984C194.303 49.68 195.497 47.0347 195.668 44.048C195.839 42 195.54 40.2933 194.772 38.928C194.004 37.4773 192.852 36.752 191.316 36.752C189.439 36.752 187.519 37.9893 185.556 40.464C183.679 42.9387 182.1 46.224 180.82 50.32C179.54 54.416 178.9 58.8533 178.9 63.632C178.9 67.984 179.412 71.4827 180.436 74.128C181.46 76.688 183.721 77.968 187.22 77.968C190.719 77.968 194.089 77.2853 197.332 75.92C200.66 74.4693 203.391 73.0613 205.524 71.696C206.207 71.2693 206.889 70.8853 207.572 70.544C208.255 70.1173 208.852 69.904 209.364 69.904C209.961 69.904 210.431 70.16 210.772 70.672C211.113 71.0987 211.284 71.6533 211.284 72.336C211.284 73.872 210.644 75.7493 209.364 77.968C208.084 80.1867 206.164 82.3627 203.604 84.496C201.129 86.6293 198.057 88.4213 194.388 89.872C190.719 91.3227 186.452 92.048 181.588 92.048ZM302.921 91.28C301.556 91.28 300.532 90.6827 299.849 89.488C299.166 88.208 298.697 86.8427 298.441 85.392C298.185 83.9413 298.057 82.832 298.057 82.064C298.057 80.8693 298.1 79.504 298.185 77.968C298.356 76.432 298.569 74.8107 298.825 73.104C299.081 71.3973 299.337 69.776 299.593 68.24L301.769 54.928C302.025 53.2213 302.324 51.472 302.665 49.68C303.092 47.8027 303.305 46.3093 303.305 45.2C303.305 44.2613 303.092 43.5787 302.665 43.152C302.238 42.7253 301.726 42.512 301.129 42.512C300.02 42.512 298.356 43.4933 296.137 45.456C293.918 47.4187 291.572 50.2773 289.097 54.032C286.708 57.7867 284.532 62.3093 282.569 67.6C280.692 72.8907 279.497 78.8213 278.985 85.392L273.353 67.6C276.852 57.7013 280.862 49.808 285.385 43.92C289.908 38.032 294.388 33.808 298.825 31.248C303.348 28.6027 307.273 27.28 310.601 27.28C313.673 27.28 316.105 27.8773 317.897 29.072C319.774 30.1813 321.097 31.632 321.865 33.424C322.633 35.216 323.017 37.008 323.017 38.8C323.017 41.104 322.846 43.1947 322.505 45.072C322.249 46.9493 321.95 48.9973 321.609 51.216L315.465 91.28H302.921ZM223.817 91.792C222.708 91.792 221.812 91.5787 221.129 91.152C220.532 90.8107 220.148 89.8293 219.977 88.208C219.892 86.5867 220.062 83.984 220.489 80.4L226.505 27.152H239.049C241.353 27.152 242.974 28.0907 243.913 29.968C244.937 31.8453 245.449 33.9787 245.449 36.368C245.449 37.4773 244.98 39.2267 244.041 41.616C243.102 43.92 242.036 46.3947 240.841 49.04C239.732 51.6 238.836 53.8613 238.153 55.824L234.825 66.32L241.993 65.552L239.817 85.904C239.732 87.0987 238.964 88.08 237.513 88.848C236.062 89.616 234.356 90.2133 232.393 90.64C230.43 91.0667 228.638 91.3653 227.017 91.536C225.396 91.7067 224.329 91.792 223.817 91.792ZM262.601 91.28C260.809 91.28 259.785 90.768 259.529 89.744C259.273 88.6347 259.145 87.6107 259.145 86.672C259.145 84.9653 259.23 82.7893 259.401 80.144C259.657 77.4133 260.212 73.4453 261.065 68.24L263.241 54.928C263.497 53.2213 263.796 51.472 264.137 49.68C264.564 47.8027 264.777 46.3093 264.777 45.2C264.777 44.2613 264.564 43.5787 264.137 43.152C263.71 42.7253 263.198 42.512 262.601 42.512C261.492 42.512 259.828 43.536 257.609 45.584C255.39 47.632 253.044 50.576 250.569 54.416C248.094 58.256 245.833 62.864 243.785 68.24C241.822 73.5307 240.5 79.4187 239.817 85.904L234.825 66.32C237.385 58.896 240.286 52.7093 243.529 47.76C246.772 42.7253 250.1 38.7147 253.513 35.728C257.012 32.7413 260.34 30.608 263.497 29.328C266.74 27.9627 269.598 27.28 272.073 27.28C275.145 27.28 277.406 27.792 278.857 28.816C280.393 29.84 281.374 31.1627 281.801 32.784C282.313 34.32 282.569 35.9413 282.569 37.648C282.569 39.5253 282.1 41.9147 281.161 44.816C280.222 47.7173 279.028 51.088 277.577 54.928C276.212 58.6827 274.804 62.9067 273.353 67.6L280.521 65.552L278.985 85.392C278.9 86.5013 278.132 87.44 276.681 88.208C275.316 88.976 273.652 89.5733 271.689 90C269.726 90.512 267.892 90.8533 266.185 91.024C264.478 91.1947 263.284 91.28 262.601 91.28Z" fill="#F6982D"/>
</svg>
